<?xml version="1.0" encoding="UTF-8"?>
<svg xmlns="http://www.w3.org/2000/svg" xmlns:xlink="http://www.w3.org/1999/xlink" width="24px" height="24px" viewBox="0 0 24 24" version="1.1">
<g id="surface1">
<path style=" stroke:none;fill-rule:nonzero;fill:rgb(0%,0%,0%);fill-opacity:1;" d="M 12 0 C 11.535156 0 11.15625 0.378906 11.15625 0.84375 L 11.15625 17.066406 L 8.277344 14.183594 C 7.949219 13.855469 7.414062 13.855469 7.085938 14.183594 C 6.757812 14.511719 6.757812 15.046875 7.085938 15.375 L 11.402344 19.691406 C 11.5625 19.851562 11.78125 19.933594 11.996094 19.933594 C 12.210938 19.933594 12.425781 19.851562 12.585938 19.691406 L 16.902344 15.375 C 17.230469 15.046875 17.230469 14.511719 16.902344 14.183594 C 16.574219 13.855469 16.039062 13.855469 15.710938 14.183594 L 12.832031 17.066406 L 12.832031 0.835938 C 12.835938 0.371094 12.464844 0 12 0 Z M 12 0 "/>
<path style=" stroke:none;fill-rule:nonzero;fill:rgb(0%,0%,0%);fill-opacity:1;" d="M 22.632812 23.164062 L 22.632812 18.277344 C 22.632812 17.8125 22.257812 17.4375 21.792969 17.4375 C 21.324219 17.4375 20.949219 17.8125 20.949219 18.277344 L 20.949219 22.324219 L 3.046875 22.324219 L 3.046875 18.277344 C 3.046875 17.8125 2.667969 17.4375 2.207031 17.4375 C 1.75 17.4375 1.367188 17.8125 1.367188 18.277344 L 1.367188 23.164062 C 1.367188 23.628906 1.742188 24 2.207031 24 L 21.792969 24 C 22.257812 24 22.632812 23.628906 22.632812 23.164062 Z M 22.632812 23.164062 "/>
</g>
</svg>
