<?xml version="1.0" encoding="UTF-8"?>
<svg xmlns="http://www.w3.org/2000/svg" xmlns:xlink="http://www.w3.org/1999/xlink" width="24px" height="24px" viewBox="0 0 24 24" version="1.1">
<g id="surface1">
<path style=" stroke:none;fill-rule:nonzero;fill:rgb(0%,0%,0%);fill-opacity:1;" d="M 14.054688 0 C 8.664062 0 4.277344 4.386719 4.277344 9.777344 C 4.277344 12.355469 5.28125 14.699219 6.914062 16.449219 L 0.167969 23.199219 L 0.96875 24 L 7.738281 17.230469 C 9.441406 18.679688 11.648438 19.554688 14.054688 19.554688 C 19.445312 19.554688 23.832031 15.167969 23.832031 9.777344 C 23.832031 4.386719 19.445312 0 14.054688 0 Z M 14.054688 18.417969 C 9.289062 18.417969 5.414062 14.542969 5.414062 9.777344 C 5.414062 5.011719 9.289062 1.136719 14.054688 1.136719 C 18.820312 1.136719 22.699219 5.011719 22.699219 9.777344 C 22.699219 14.542969 18.820312 18.417969 14.054688 18.417969 Z M 14.054688 18.417969 "/>
</g>
</svg>
